<?xml version="1.0" encoding="utf-8"?>
<!-- Generator: Adobe Illustrator 27.7.0, SVG Export Plug-In . SVG Version: 6.00 Build 0)  -->
<svg version="1.1" id="Layer_1" xmlns="http://www.w3.org/2000/svg" xmlns:xlink="http://www.w3.org/1999/xlink" x="0px" y="0px"
	 viewBox="0 0 518.9 172.6" style="enable-background:new 0 0 518.9 172.6;" xml:space="preserve">
<style type="text/css">
	.st0{fill:#6C6C70;}
	.st1{fill:#F58C33;}
	.st2{fill:#FFFFFF;}
</style>
<g>
	<g>
		<path class="st0" d="M179.7,95c0-12.2,8.2-20,19.2-20c7.7,0,14.5,3.9,17.3,11.5l-7.6,3.1c-1.6-4.7-5.4-6.9-9.7-6.9
			c-6.5,0-10.7,5.4-10.7,12.4c0,7.6,4.8,12.4,11.1,12.4c4.9,0,8.7-2.9,10.6-7.7l7.5,2.9c-2.7,7.8-9.6,12.4-18.1,12.4
			C188,114.9,179.7,107.2,179.7,95z"/>
		<path class="st1" d="M221.1,95c0-11.8,8-20,19.4-20s19.3,8.3,19.3,20s-7.9,20-19.3,20S221.1,106.7,221.1,95z"/>
		<path class="st0" d="M266.7,76h7.9v6h0.1c2.9-5,7.4-7.1,12.2-7.1c6.9,0,13.4,4.4,13.4,15.1v23.8h-8.1V93.5c0-6.3-2.3-11-8.1-11
			c-5.4,0-9.4,4.2-9.4,11.3v20h-8V76z"/>
		<path class="st0" d="M310.1,76h7.9v6h0.1c2.9-5,7.4-7.1,12.2-7.1c6.9,0,13.4,4.4,13.4,15.1v23.8h-8.1V93.5c0-6.3-2.3-11-8.1-11
			c-5.4,0-9.4,4.2-9.4,11.3v20h-8V76z"/>
		<path class="st0" d="M350.9,95c0-11.6,7.8-20.1,18.8-20.1c8.8,0,17.9,5.5,17.9,19.8v2.4H359c0.6,6.7,5.3,10.7,11.2,10.7
			c4.7,0,8.4-2.8,10.1-7.1l7.5,3c-2.6,6.7-9.1,11.3-17.7,11.3C359.2,114.9,350.9,107.1,350.9,95z M379.5,91.3
			c-0.5-6.9-5.2-9.4-9.9-9.4c-5.6,0-9.2,3.9-10.2,9.4H379.5z"/>
		<path class="st0" d="M392.9,95c0-12.2,8.2-20,19.2-20c7.7,0,14.5,3.9,17.3,11.5l-7.6,3.1c-1.6-4.7-5.4-6.9-9.7-6.9
			c-6.5,0-10.7,5.4-10.7,12.4c0,7.6,4.8,12.4,11.1,12.4c4.9,0,8.7-2.9,10.6-7.7l7.5,2.9c-2.7,7.8-9.6,12.4-18.1,12.4
			C401.2,114.9,392.9,107.2,392.9,95z"/>
		<path class="st0" d="M440,102V83.3c-2.5,0-5,0-7.5,0V76h7.5c0-3.6,0-7.3,0-10.9h8.1V76c3.5,0,7.1,0,10.6,0v7.3h-10.6
			c0,5.3,0,10.6,0,15.9c0,3.7,0,8.4,5.2,8.4c1.8,0,3.7-0.5,5.4-1.5v7.3c-1.9,1.1-4.5,1.6-7,1.6C440,114.9,440,106,440,102z"/>
	</g>
	<polygon class="st1" points="69.7,76 60.3,85.4 60.3,85.4 60.3,113.7 69.7,113.7 69.7,85.4 88.6,85.4 88.6,76 69.7,76 	"/>
	<polygon class="st1" points="152.8,76 152.8,76 143.4,85.4 143.4,85.4 143.4,113.7 152.8,113.7 152.8,85.4 152.8,85.4 152.8,85.4 
		152.8,85.4 171.6,85.4 171.6,76 	"/>
	<polygon class="st1" points="124.5,76 124.5,76 105.7,76 105.7,76 105.7,76 105.7,57.2 96.2,57.2 96.2,113.7 105.7,113.7 
		105.7,85.4 124.5,85.4 124.5,113.7 133.9,113.7 133.9,85.4 133.9,85.4 	"/>
	<polygon class="st2" points="245.9,86 245.9,101 230.9,101 	"/>
</g>
</svg>
